<svg width="57" height="41" viewBox="0 0 57 41" fill="none" xmlns="http://www.w3.org/2000/svg">
    <g style="mix-blend-mode:multiply">
        <path d="M32.6678 10.1049C27.087 15.6858 27.0684 24.7155 32.6263 30.2734L52.8363 10.0634C47.2784 4.50547 38.2487 4.52409 32.6678 10.1049Z" fill="#0458FE"/>
    </g>
    <mask id="mask0_1:1215" style="mask-type:alpha" maskUnits="userSpaceOnUse" x="28" y="5" width="25" height="26">
        <g style="mix-blend-mode:multiply">
            <path d="M32.6678 10.1057C27.087 15.6866 27.0684 24.7163 32.6263 30.2742L52.8363 10.0641C47.2784 4.50626 38.2487 4.52488 32.6678 10.1057Z" fill="#0458FE"/>
        </g>
    </mask>
    <g mask="url(#mask0_1:1215)">
        <rect x="53.2694" y="5.88177" width="1.34544" height="44.6204" transform="rotate(45 53.2694 5.88177)" fill="#DEECFF"/>
        <rect x="45.6251" y="2.29828" width="1.34544" height="44.6204" transform="rotate(45 45.6251 2.29828)" fill="#DEECFF"/>
        <rect x="50.6952" y="4.70044" width="1.34544" height="44.6204" transform="rotate(45 50.6952 4.70044)" fill="#DEECFF"/>
        <rect x="43.2101" y="0.95813" width="1.34544" height="44.6204" transform="rotate(45 43.2101 0.95813)" fill="#DEECFF"/>
        <rect x="47.9329" y="3.74902" width="1.34544" height="44.6204" transform="rotate(45 47.9329 3.74902)" fill="#DEECFF"/>
    </g>
    <g style="mix-blend-mode:multiply">
        <path d="M32.6681 30.3622C38.2489 35.943 47.2786 35.9617 52.8365 30.4038L32.6265 10.1937C27.0686 15.7516 27.0872 24.7813 32.6681 30.3622Z" fill="#0458FE"/>
    </g>
    <path d="M26.0499 20.2338H9.16687C5.11117 20.2338 1.82642 17.0185 1.82642 13.0574C1.82642 9.09233 5.11527 5.88098 9.16687 5.88098H26.0499V20.2338Z" fill="#FF1F55"/>
    <g style="mix-blend-mode:multiply">
        <path d="M0.638643 20.2348L17.475 20.2348C21.5195 20.2348 24.7952 23.4413 24.7952 27.3914C24.7952 31.3455 21.5154 34.548 17.475 34.548L0.638641 34.548L0.638643 20.2348Z" fill="#0458FE"/>
    </g>
    <path d="M42.6805 20.2347C50.5891 20.2347 57.0003 26.6459 57.0003 34.5545H42.6805V20.2347Z" fill="#FF1F55"/>
    <rect x="10.4824" y="20.2347" width="14.3128" height="14.3128" rx="7.15639" fill="#001EFD"/>
    <rect x="11.8416" y="21.5934" width="11.595" height="11.595" rx="5.7975" fill="#0458FE"/>
    <rect x="13.2501" y="23.0015" width="8.77773" height="8.77773" rx="4.38887" fill="#001EFD"/>
    <rect x="14.7045" y="24.4566" width="5.8689" height="5.8689" rx="2.93445" fill="#0458FE"/>
    <rect x="16.1184" y="25.8701" width="3.04086" height="3.04086" rx="1.52043" fill="#001EFD"/>
    <rect x="1.84619" y="5.88098" width="14.3531" height="14.3531" rx="7.17657" fill="#E11646"/>
    <rect x="3.22522" y="7.2605" width="11.595" height="11.595" rx="5.7975" fill="#FF1F55"/>
    <rect x="4.63367" y="8.66858" width="8.77773" height="8.77773" rx="4.38887" fill="#E11646"/>
    <rect x="6.08838" y="10.1237" width="5.8689" height="5.8689" rx="2.93445" fill="#FF1F55"/>
    <rect x="7.50232" y="11.5371" width="3.04086" height="3.04086" rx="1.52043" fill="#E11646"/>
</svg>
